# xmcd
#
# Track frame offsets: 
#        175
#        20325
#        36725
#        58687
#        73125
#        92637
#        105375
#        121600
#        145475
#        168300
#        185100
#        207275
#        225925
#        243300
#        261125
#        273525
#        288512
#        307300
#
# Disc length: 4388 seconds
#
# Revision: 3
# Processed by: cddbd v1.5.2PL0 Copyright (c) Steve Scherf et al.
# Submitted via: ExactAudioCopy v0.99pb5
#
DISCID=0f112212
DTITLE=Various Artist - Romantic Collection More Gold [CD 1]
DYEAR=2002
DGENRE=Disco
TTITLE0=Moody Blues - Light In White Satin
TTITLE1=Chris De Burg - Midnight In Vodka
TTITLE2=Tanita Tikaram - Twist In My Sobriety
TTITLE3=Styx - Boat On The River
TTITLE4=Scorpions - White Dove
TTITLE5=E. Moriccone - For A Few Dollars More
TTITLE6=Mike Oldfield - Moonlight Shadow
TTITLE7=Richard Marx - Hazard
TTITLE8=Chris Rea - Lookin For The Summer
TTITLE9=Patricia Kaas - Quand Jimmy Dit
TTITLE10=Sam Brown - Stop!
TTITLE11=The Alan Parsons Project - I Am Mirror
TTITLE12=Ricky King - Exodus
TTITLE13=Demis Russos - Goodbye My Love Goodbye
TTITLE14=Rare Bird - Sympathy
TTITLE15=Kelly Familiy - Father's Nose
TTITLE16=Paul Mc'Cartney - Bip Bop
TTITLE17=London Symphonic Orchestra - Light In White Satin
EXTD=
EXTT0=
EXTT1=
EXTT2=
EXTT3=
EXTT4=
EXTT5=
EXTT6=
EXTT7=
EXTT8=
EXTT9=
EXTT10=
EXTT11=
EXTT12=
EXTT13=
EXTT14=
EXTT15=
EXTT16=
EXTT17=
PLAYORDER=
